<svg xmlns="http://www.w3.org/2000/svg" version="1.1" xmlns:xlink="http://www.w3.org/1999/xlink" xmlns:svgjs="http://svgjs.com/svgjs" width="1440" height="560" preserveAspectRatio="none" viewBox="0 0 1440 560"><g mask="url(&quot;#SvgjsMask1219&quot;)" fill="none"><rect width="1440" height="560" x="0" y="0" fill="url(#SvgjsLinearGradient1220)"></rect><path d="M337.735912350416 288.23389586210476L417.81751315764893 317.3812148683258 366.88323135663705 208.15229505487181z" fill="rgba(28, 83, 142, 0.4)" class="triangle-float2"></path><path d="M327.999,431.376C346.873,431.72,364.148,421.679,374.167,405.68C384.887,388.561,389.243,366.987,379.345,349.38C369.283,331.48,348.531,323.255,327.999,323.555C308.023,323.847,288.662,333.255,279.191,350.845C270.133,367.668,274.758,387.706,284.662,404.046C294.15,419.7,309.697,431.042,327.999,431.376" fill="rgba(28, 83, 142, 0.4)" class="triangle-float2"></path><path d="M1103.3707840124496 401.80929571305495L1142.039735561378 275.32885428520575 1015.5592941335289 236.6599027362773 976.8903425846004 363.1403441641265z" fill="rgba(28, 83, 142, 0.4)" class="triangle-float1"></path><path d="M132.1955061239794 649.906937041163L147.8490189776073 500.9737107628889-16.73772015429472 634.2534241875351z" fill="rgba(28, 83, 142, 0.4)" class="triangle-float3"></path><path d="M1277.58,523.326C1318.696,523.668,1346.944,487.438,1367.994,452.118C1389.747,415.617,1409.742,372.652,1389.707,335.18C1368.875,296.218,1321.76,283.444,1277.58,283.017C1232.477,282.581,1182.573,293.026,1161.635,332.977C1141.573,371.256,1167.249,413.727,1189.731,450.637C1210.922,485.427,1236.845,522.988,1277.58,523.326" fill="rgba(28, 83, 142, 0.4)" class="triangle-float3"></path><path d="M514.1617156966196 310.405578400194L482.3382464239864 222.97131516492635 394.9039831887188 254.79478443755954 426.72745246135196 342.22904767282716z" fill="rgba(28, 83, 142, 0.4)" class="triangle-float3"></path><path d="M943.7548488541134 359.5461970255088L1038.6792833847976 369.5231571248831 953.7318089534878 264.6217624948245z" fill="rgba(28, 83, 142, 0.4)" class="triangle-float3"></path><path d="M432.5692629502321 340.3986491943553L340.50561110766046 325.8171992230366 417.9878129789134 432.462301036927z" fill="rgba(28, 83, 142, 0.4)" class="triangle-float3"></path><path d="M1390.1555197446069 316.52173345600585L1271.9708136492436 382.0325857879509 1337.4816659811888 500.21729188331415 1455.6663720765519 434.70643955136904z" fill="rgba(28, 83, 142, 0.4)" class="triangle-float3"></path><path d="M441.065,649.456C475.153,648.698,509.161,638.457,527.972,610.02C548.852,578.455,554.223,538.158,536.973,504.472C518.182,467.778,482.29,440.45,441.065,440.31C399.631,440.17,363.721,467.365,344.025,503.818C325.299,538.476,325.352,581.256,347.196,614.039C367.071,643.868,405.23,650.253,441.065,649.456" fill="rgba(28, 83, 142, 0.4)" class="triangle-float3"></path><path d="M130.35234660887983 370.63713445093634L80.28158506750188 280.30708948748276-10.04845989595168 330.37785102886073 40.02230164542625 420.70789599231426z" fill="rgba(28, 83, 142, 0.4)" class="triangle-float1"></path><path d="M582.746,521.968C605.903,522.388,632.286,521.073,644.152,501.182C656.196,480.993,647.358,455.473,633.922,436.183C622.452,419.715,602.808,413.534,582.746,413.022C561.488,412.48,538.684,415.79,526.841,433.452C513.79,452.916,512.569,479.209,525.083,499.022C536.923,517.768,560.578,521.566,582.746,521.968" fill="rgba(28, 83, 142, 0.4)" class="triangle-float2"></path><path d="M1308.789,94.489C1335.807,92.764,1358.663,77.28,1373.07,54.359C1388.656,29.562,1399.119,-1.093,1384.991,-26.748C1370.495,-53.072,1338.832,-63.122,1308.789,-62.37C1280.162,-61.653,1254.31,-47.241,1238.921,-23.092C1222.159,3.211,1212.59,36.776,1228.523,63.589C1244.22,90.005,1278.123,96.447,1308.789,94.489" fill="rgba(28, 83, 142, 0.4)" class="triangle-float2"></path><path d="M1088.966,114.502C1108.159,114.312,1125.807,102.721,1134.148,85.434C1141.617,69.956,1134.336,52.998,1125.857,38.049C1117.218,22.819,1106.462,6.477,1088.966,5.783C1070.622,5.055,1055.848,19.029,1046.633,34.907C1037.375,50.859,1033.549,70.059,1042.21,86.343C1051.367,103.559,1069.467,114.695,1088.966,114.502" fill="rgba(28, 83, 142, 0.4)" class="triangle-float1"></path><path d="M485.36503540852357 128.3562350117527L400.1177089823642-39.345977873155945 308.15780752481305 96.99018269608739z" fill="rgba(28, 83, 142, 0.4)" class="triangle-float1"></path></g><defs><mask id="SvgjsMask1219"><rect width="1440" height="560" fill="#ffffff"></rect></mask><linearGradient x1="15.28%" y1="-39.29%" x2="84.72%" y2="139.29%" gradientUnits="userSpaceOnUse" id="SvgjsLinearGradient1220"><stop stop-color="#0e2a47" offset="0"></stop><stop stop-color="rgba(0, 43, 98, 1)" offset="1"></stop></linearGradient><style>
            @keyframes float1 {
                0%{transform: translate(0, 0)}
                50%{transform: translate(-10px, 0)}
                100%{transform: translate(0, 0)}
            }

            .triangle-float1 {
                animation: float1 5s infinite;
            }

            @keyframes float2 {
                0%{transform: translate(0, 0)}
                50%{transform: translate(-5px, -5px)}
                100%{transform: translate(0, 0)}
            }

            .triangle-float2 {
                animation: float2 4s infinite;
            }

            @keyframes float3 {
                0%{transform: translate(0, 0)}
                50%{transform: translate(0, -10px)}
                100%{transform: translate(0, 0)}
            }

            .triangle-float3 {
                animation: float3 6s infinite;
            }
        </style></defs></svg>